<svg width="49" height="51" viewBox="0 0 49 51" fill="none" xmlns="http://www.w3.org/2000/svg">
<g filter="url(#filter0_d)">
<circle cx="24" cy="24" r="24" fill="#3B2C72"/>
</g>
<path d="M24.1999 19.5677C21.2644 19.5677 18.8322 21.9581 18.8322 24.9355C18.8322 27.9129 21.2225 30.3032 24.1999 30.3032C27.1773 30.3032 29.5676 27.8709 29.5676 24.9355C29.5676 22 27.1353 19.5677 24.1999 19.5677ZM24.1999 28.3742C22.3128 28.3742 20.7612 26.8226 20.7612 24.9355C20.7612 23.0484 22.3128 21.4968 24.1999 21.4968C26.087 21.4968 27.6386 23.0484 27.6386 24.9355C27.6386 26.8226 26.087 28.3742 24.1999 28.3742Z" fill="white"/>
<path d="M29.7772 20.6581C30.4489 20.6581 30.9933 20.1137 30.9933 19.442C30.9933 18.7704 30.4489 18.2259 29.7772 18.2259C29.1056 18.2259 28.5611 18.7704 28.5611 19.442C28.5611 20.1137 29.1056 20.6581 29.7772 20.6581Z" fill="white"/>
<path d="M32.9224 16.2969C31.8321 15.1646 30.2805 14.5775 28.5192 14.5775H19.8805C16.2322 14.5775 13.7999 17.0098 13.7999 20.6581V29.2549C13.7999 31.0581 14.387 32.6097 15.5612 33.7419C16.6935 34.8323 18.2031 35.3774 19.9225 35.3774H28.4773C30.2805 35.3774 31.7902 34.7903 32.8805 33.7419C34.0127 32.6516 34.5998 31.1 34.5998 29.2968V20.6581C34.5998 18.8968 34.0127 17.3872 32.9224 16.2969ZM32.7547 29.2968C32.7547 30.5968 32.2934 31.6452 31.5385 32.3581C30.7837 33.071 29.7353 33.4484 28.4773 33.4484H19.9225C18.6644 33.4484 17.616 33.071 16.8612 32.3581C16.1064 31.6032 15.7289 30.5549 15.7289 29.2549V20.6581C15.7289 19.4001 16.1064 18.3517 16.8612 17.5969C17.5741 16.884 18.6644 16.5065 19.9225 16.5065H28.5611C29.8192 16.5065 30.8676 16.884 31.6224 17.6388C32.3353 18.3936 32.7547 19.442 32.7547 20.6581V29.2968Z" fill="white"/>
<defs>
<filter id="filter0_d" x="0" y="0" width="49" height="51" filterUnits="userSpaceOnUse" color-interpolation-filters="sRGB">
<feFlood flood-opacity="0" result="BackgroundImageFix"/>
<feColorMatrix in="SourceAlpha" type="matrix" values="0 0 0 0 0 0 0 0 0 0 0 0 0 0 0 0 0 0 127 0"/>
<feOffset dx="1" dy="3"/>
<feColorMatrix type="matrix" values="0 0 0 0 0 0 0 0 0 0 0 0 0 0 0 0 0 0 0.25 0"/>
<feBlend mode="normal" in2="BackgroundImageFix" result="effect1_dropShadow"/>
<feBlend mode="normal" in="SourceGraphic" in2="effect1_dropShadow" result="shape"/>
</filter>
</defs>
</svg>
