<svg width="92" height="132" viewBox="0 0 92 132" fill="none" xmlns="http://www.w3.org/2000/svg">
<g clip-path="url(#clip0)">
<path d="M37.232 0C47.2812 11.722 50.7984 19.8764 45.2714 37.7143C39.7443 55.5521 28.439 66.5097 28.1878 89.6988C27.8361 120.788 63.8623 132 63.8623 132C63.8623 132 48.5373 117.475 47.5324 99.6371C46.5275 81.7992 55.5717 73.1351 64.1135 41.5367C70.6455 13.5058 44.5177 2.29344 37.232 0Z" fill="white"/>
<path d="M28.188 47.3978C31.9564 26.7569 12.1093 20.8959 12.1093 20.8959C16.6315 26.5021 19.1437 29.0503 17.6364 40.7723C16.129 52.4943 4.32125 60.9036 1.05528 74.9191C-5.52691 103.205 21.1536 111.104 21.1536 111.104C15.8778 102.695 12.863 101.217 12.863 88.9345C12.863 73.6449 24.0176 70.2303 28.188 47.3978Z" fill="white"/>
<path d="M75.0174 24.5143C79.64 30.0186 82.2025 32.5159 80.9464 44.2889C79.6902 56.0618 68.0332 64.675 65.0687 78.7414C59.0392 107.129 85.8704 114.519 85.8704 114.519C80.4439 106.212 77.3789 104.785 77.1277 92.502C76.8262 77.2124 87.9305 73.5429 91.6487 50.6595C94.9649 29.9676 75.0174 24.5143 75.0174 24.5143Z" fill="white"/>
</g>
<defs>
<clipPath id="clip0">
<rect width="92" height="132" fill="white"/>
</clipPath>
</defs>
</svg>
