<svg width="67" height="68" viewBox="0 0 67 68" fill="none" xmlns="http://www.w3.org/2000/svg">
<path d="M33.4996 67.222C51.8283 67.222 66.6867 52.3636 66.6867 34.0349C66.6867 15.7061 51.8283 0.847778 33.4996 0.847778C15.1709 0.847778 0.3125 15.7061 0.3125 34.0349C0.3125 52.3636 15.1709 67.222 33.4996 67.222Z" fill="#4D76A1"/>
<path fill-rule="evenodd" clip-rule="evenodd" d="M32.2579 48.5876H34.8608C34.8608 48.5876 35.6299 48.5284 36.044 48.0552C36.3989 47.6411 36.3989 46.9312 36.3989 46.9312C36.3989 46.9312 36.3397 43.4409 37.9961 42.9085C39.5934 42.3761 41.6639 46.2805 43.8527 47.7594C45.5091 48.8834 46.7514 48.6467 46.7514 48.6467L52.5488 48.5876C52.5488 48.5876 55.5658 48.4101 54.146 45.9847C54.0277 45.8072 53.3178 44.21 49.8275 40.9563C46.1598 37.5844 46.6922 38.1168 51.0699 32.2602C53.7319 28.7108 54.7967 26.522 54.501 25.5755C54.2052 24.6881 52.1938 24.9248 52.1938 24.9248L45.6274 24.9839C45.6274 24.9839 45.1541 24.9248 44.7992 25.1614C44.4443 25.398 44.2076 25.8713 44.2076 25.8713C44.2076 25.8713 43.1428 28.6517 41.723 30.9588C38.8243 35.928 37.6412 36.1646 37.1679 35.8688C36.044 35.1589 36.3398 32.9701 36.3398 31.432C36.3398 26.6403 37.0496 24.629 34.92 24.0966C34.2101 23.9191 33.6777 23.8008 31.8438 23.8008C29.4775 23.8008 27.5254 23.8008 26.4014 24.3332C25.6323 24.6881 25.0999 25.5163 25.4549 25.5755C25.869 25.6346 26.8746 25.8121 27.407 26.522C28.0578 27.4094 28.0578 29.4799 28.0578 29.4799C28.0578 29.4799 28.4719 35.1589 27.1704 35.8097C26.2831 36.2829 25.0999 35.3364 22.497 30.8405C21.1364 28.5333 20.1307 25.9896 20.1307 25.9896C20.1307 25.9896 19.9533 25.5163 19.5983 25.2797C19.1842 24.9839 18.5926 24.8656 18.5926 24.8656L12.3812 24.9248C12.3812 24.9248 11.4346 24.9248 11.0797 25.3389C10.7839 25.6938 11.0797 26.4628 11.0797 26.4628C11.0797 26.4628 15.9306 37.8802 21.4913 43.6184C26.5197 48.9425 32.2579 48.5876 32.2579 48.5876Z" fill="white"/>
</svg>
