<svg width="67" height="68" viewBox="0 0 67 68" fill="none" xmlns="http://www.w3.org/2000/svg">
<path d="M33.8131 67.222C52.1418 67.222 67.0002 52.3636 67.0002 34.0349C67.0002 15.7061 52.1418 0.847778 33.8131 0.847778C15.4843 0.847778 0.625977 15.7061 0.625977 34.0349C0.625977 52.3636 15.4843 67.222 33.8131 67.222Z" fill="#DC4E41"/>
<path d="M12.1619 35.5136C12.0436 41.2518 15.9479 46.6943 21.3904 48.469C26.4779 50.1845 32.7485 48.8831 36.1205 44.5646C38.6051 41.4885 39.1375 37.4066 38.9009 33.6206C34.5232 33.5614 30.1456 33.6206 25.8272 33.6206C25.8272 35.1587 25.8272 36.6967 25.8272 38.294C28.4301 38.3531 31.033 38.3531 33.695 38.4123C33.0443 40.6603 31.5062 42.7899 29.2583 43.6181C24.8806 45.5703 19.2607 43.0265 17.841 38.4123C16.1846 33.9755 18.9058 28.6514 23.4017 27.3499C26.1821 26.3443 29.0808 27.4683 31.5062 28.9472C32.7485 27.8232 33.8725 26.5809 34.9965 25.3386C32.2753 23.0315 28.785 21.6709 25.1764 21.9666C18.0776 21.9666 11.9253 28.4739 12.1619 35.5136Z" fill="#DC4E41"/>
<path d="M47.4206 29.657C47.4206 30.9584 47.4206 32.2599 47.3614 33.5613C46.0599 33.5613 44.7585 33.5613 43.457 33.5613C43.457 34.8628 43.457 36.1643 43.457 37.4657C44.7585 37.4657 46.0599 37.4657 47.3614 37.4657C47.3614 38.7672 47.3614 40.0686 47.3614 41.3701C48.6628 41.3701 49.9643 41.3701 51.2658 41.3701C51.2658 40.0686 51.2658 38.7672 51.2658 37.4657C52.5672 37.4657 53.8687 37.4657 55.1701 37.4657C55.1701 36.1643 55.1701 34.8628 55.1701 33.5613C53.8687 33.5613 52.5672 33.5613 51.2658 33.5613C51.2658 32.2599 51.2658 30.9584 51.2658 29.657C50.0235 29.657 48.722 29.657 47.4206 29.657Z" fill="#DC4E41"/>
<path d="M12.1615 35.5136C11.8657 28.4739 18.0772 21.9667 25.1169 21.8484C28.7255 21.5526 32.2157 22.9132 34.937 25.2203C33.813 26.4626 32.689 27.6457 31.4467 28.8289C29.0213 27.35 26.1817 26.2851 23.3422 27.2317C18.8463 28.5331 16.0659 33.8572 17.7814 38.294C19.142 42.9083 24.762 45.452 29.1987 43.4998C31.5059 42.6716 32.9848 40.6011 33.6355 38.294C31.0326 38.2349 28.4297 38.294 25.7676 38.1757C25.7676 36.6376 25.7676 35.0995 25.7676 33.5023C30.1453 33.5023 34.4637 33.5023 38.8413 33.5023C39.1371 37.2883 38.5456 41.3702 36.061 44.4463C32.689 48.824 26.4184 50.0663 21.3309 48.3507C16.0067 46.6943 12.0432 41.2519 12.1615 35.5136Z" fill="white"/>
<path d="M47.419 29.657C48.7205 29.657 50.0219 29.657 51.3234 29.657C51.3234 30.9584 51.3234 32.2599 51.3234 33.5613C52.6248 33.5613 53.9263 33.5613 55.2277 33.5613C55.2277 34.8628 55.2277 36.1643 55.2277 37.4657C53.9263 37.4657 52.6248 37.4657 51.3234 37.4657C51.3234 38.7672 51.3234 40.0686 51.3234 41.3701C50.0219 41.3701 48.7205 41.3701 47.419 41.3701C47.419 40.0686 47.419 38.7672 47.419 37.4657C46.1176 37.4657 44.8161 37.4657 43.5146 37.4657C43.5146 36.1643 43.5146 34.8628 43.5146 33.5613C44.8161 33.5613 46.1176 33.5613 47.419 33.5613C47.419 32.2599 47.419 30.9584 47.419 29.657Z" fill="white"/>
</svg>
