<svg width="20" height="20" viewBox="0 0 20 20" fill="none" xmlns="http://www.w3.org/2000/svg">
<mask id="mask0" mask-type="alpha" maskUnits="userSpaceOnUse" x="0" y="0" width="20" height="20">
<path d="M10 20C15.5228 20 20 15.5228 20 10C20 4.47715 15.5228 0 10 0C4.47715 0 0 4.47715 0 10C0 15.5228 4.47715 20 10 20Z" fill="#F1F1F1"/>
</mask>
<g mask="url(#mask0)">
<path d="M10 20C15.5228 20 20 15.5228 20 10C20 4.47715 15.5228 0 10 0C4.47715 0 0 4.47715 0 10C0 15.5228 4.47715 20 10 20Z" fill="#FF0000"/>
</g>
<g clip-path="url(#clip0)">
<path d="M8.24219 8.42112C7.80663 8.15278 7.34774 7.92723 6.8733 7.74445C6.46497 8.34723 6.22774 9.07056 6.22774 9.85611C6.22774 10.245 6.28608 10.6183 6.39885 10.9761C6.59719 10.5211 6.84608 10.0817 7.14941 9.65778C7.47219 9.19889 7.84163 8.78278 8.24219 8.42112ZM7.0833 7.46445C7.59663 7.64334 8.09052 7.87278 8.56497 8.14112C8.66997 8.04778 8.78274 7.97001 8.88774 7.89223C8.38608 7.61612 7.8533 7.39056 7.30885 7.21945C7.22719 7.30112 7.14941 7.3789 7.0833 7.46445ZM7.54608 6.99779C8.13719 7.15723 8.70497 7.37501 9.23774 7.65501C9.36219 7.57723 9.48663 7.50334 9.60719 7.42945C9.03941 7.13779 8.44052 6.92779 7.82219 6.77612C7.72108 6.84612 7.63163 6.92001 7.54608 6.99779ZM8.10219 6.60112C8.75552 6.73334 9.38552 6.94334 9.98052 7.23501C10.5794 6.94334 11.2133 6.73334 11.8589 6.60112C11.3105 6.27834 10.665 6.09557 9.98052 6.09557C9.29608 6.09557 8.6583 6.27834 8.10219 6.60112ZM12.1427 6.78779C11.5244 6.93168 10.9255 7.14945 10.3577 7.43334C10.4822 7.50723 10.6027 7.57723 10.7272 7.6589C11.2677 7.37501 11.8355 7.15723 12.4189 7.00168C12.3333 6.92001 12.24 6.84612 12.1427 6.78779ZM12.6561 7.22723C12.1077 7.39056 11.5827 7.61612 11.0772 7.89223C11.19 7.97001 11.3027 8.05556 11.4077 8.14112C11.8744 7.87278 12.3683 7.63945 12.8816 7.46445C12.8116 7.3789 12.7416 7.30112 12.6561 7.22723ZM13.0877 7.74834C12.6133 7.92723 12.1583 8.1489 11.7227 8.42112C12.1233 8.78278 12.485 9.19889 12.8155 9.65778C13.1111 10.0778 13.3639 10.5211 13.5661 10.9761C13.6711 10.6144 13.7294 10.245 13.7294 9.85611C13.7333 9.07056 13.4961 8.34723 13.0877 7.74834ZM12.765 10.3306C12.3683 9.69278 11.8939 9.125 11.3689 8.64278C11.2522 8.72834 11.1239 8.81389 11.015 8.89945C11.9055 9.72778 12.6211 10.77 13.0761 11.9833C13.1811 11.8239 13.2783 11.6606 13.36 11.4972C13.1966 11.1006 12.9983 10.7117 12.765 10.3306ZM10.6805 8.61945C10.7972 8.53389 10.9177 8.44834 11.0422 8.37056C10.9372 8.27723 10.8244 8.19167 10.7116 8.10612C10.5872 8.1839 10.4627 8.26556 10.3344 8.35112H10.3422C10.455 8.43278 10.5677 8.52612 10.6805 8.61945ZM9.98052 8.09056C10.105 8.01278 10.2372 7.93112 10.3577 7.86112C10.2333 7.78334 10.1089 7.70167 9.98052 7.63167C9.85608 7.70556 9.73552 7.78334 9.61108 7.86112C9.73552 7.93112 9.85608 8.01278 9.98052 8.09056ZM9.62663 8.34723C9.50219 8.26167 9.38163 8.1839 9.25719 8.10223C9.14441 8.18778 9.03163 8.27334 8.92274 8.35889C9.04719 8.44445 9.16774 8.52223 9.28441 8.60778C9.3933 8.51834 9.50608 8.43278 9.62663 8.34723ZM9.98052 8.61167C9.86774 8.69723 9.75497 8.79056 9.6383 8.88778C9.75497 8.98112 9.86774 9.07834 9.98052 9.17945C10.0933 9.08223 10.2061 8.98112 10.3227 8.88778C10.21 8.79445 10.1011 8.69723 9.98052 8.61167ZM9.98052 9.84445C9.47885 10.385 9.03941 11.0033 8.68163 11.6956C8.43663 12.1583 8.24608 12.6367 8.10219 13.1189C8.65441 13.43 9.29608 13.6128 9.98052 13.6128C10.665 13.6128 11.3027 13.43 11.8589 13.1189C11.715 12.6367 11.5244 12.1583 11.2794 11.6956C10.9216 11.0033 10.4861 10.3811 9.98052 9.84445ZM7.80663 12.3372C8.23441 11.2444 8.8683 10.2878 9.64219 9.49834C9.52941 9.39334 9.41663 9.29612 9.29997 9.18723C8.39774 10.0622 7.67441 11.1511 7.23108 12.4072C7.35552 12.5472 7.48774 12.6717 7.63163 12.7883C7.68997 12.6406 7.7483 12.4889 7.80663 12.3372ZM10.315 9.49834C11.0927 10.2878 11.7227 11.2444 12.1583 12.3372C12.2166 12.4889 12.2711 12.6406 12.3216 12.7922C12.4655 12.6756 12.6055 12.5472 12.73 12.4111C12.2827 11.155 11.5594 10.0661 10.6572 9.19112C10.5405 9.29611 10.4277 9.39334 10.315 9.49834ZM6.88497 11.9833C7.33997 10.77 8.05552 9.73945 8.95385 8.90723C8.83719 8.81389 8.71663 8.72834 8.59219 8.64278C8.06719 9.12889 7.59274 9.69667 7.19608 10.3344C6.96663 10.7117 6.7683 11.0967 6.60497 11.4933C6.68274 11.6683 6.77997 11.8239 6.88497 11.9833ZM9.99997 5.79223C12.3177 5.79223 14.2077 7.68223 14.2077 10C14.2077 12.3178 12.3177 14.2078 9.99997 14.2078C7.68219 14.2078 5.79219 12.3178 5.79219 10C5.79219 7.68223 7.68219 5.79223 9.99997 5.79223ZM11.8589 4.87057C11.7422 5.01057 11.61 5.18557 11.4777 5.46946C11.4466 5.39557 11.4466 5.31001 11.4661 5.22057C11.4972 4.91724 11.5827 4.73446 11.7422 4.47779C11.7966 4.38446 11.8472 4.30668 11.8744 4.20946C11.9716 3.9139 11.9522 3.51724 11.7344 3.21002C11.7655 3.56002 11.6605 3.84779 11.5439 4.02668C11.5244 4.05779 11.505 4.08113 11.4777 4.10446C11.3533 4.2289 11.2133 4.35335 11.0383 4.64501C10.9411 4.80446 10.84 4.99501 10.7466 5.29835C10.7077 5.23223 10.6922 5.15446 10.7 5.06112C10.6883 4.75001 10.7389 4.55946 10.8516 4.27557C10.8905 4.17835 10.9294 4.09279 10.945 3.9839C10.9916 3.68057 10.9139 3.29168 10.6494 3.02335C10.735 3.35779 10.6805 3.66113 10.5911 3.85946C10.5716 3.89057 10.56 3.91779 10.5366 3.94502C10.4316 4.0889 10.3189 4.23668 10.1827 4.5439C10.1166 4.72279 10.0427 4.92501 10.0039 5.23612C9.94941 5.17779 9.92608 5.09612 9.9183 5.00668C9.85997 4.70335 9.87941 4.50501 9.94552 4.20946C9.97274 4.11224 9.99997 4.0189 9.99219 3.9139C9.99219 3.60279 9.85219 3.23724 9.55274 3.00391C9.69274 3.32668 9.68497 3.63779 9.62663 3.84779C9.61496 3.87502 9.59941 3.90613 9.58774 3.93335C9.50996 4.09668 9.41663 4.25613 9.33108 4.58668C9.29219 4.76946 9.2533 4.98724 9.25719 5.29835C9.20274 5.2439 9.16385 5.1739 9.14052 5.08835C9.03552 4.79279 9.02385 4.60224 9.04719 4.29113C9.05497 4.18613 9.05885 4.09279 9.04719 3.99557C8.99274 3.68446 8.7983 3.34224 8.46774 3.16724C8.65052 3.46279 8.6933 3.7739 8.66608 3.9839C8.6583 4.01502 8.65441 4.05002 8.64663 4.08113C8.59219 4.25224 8.52997 4.42335 8.49497 4.76557C8.4833 4.94835 8.47552 5.16612 8.53385 5.47723C8.46774 5.43057 8.42108 5.36446 8.38219 5.28668C8.23052 5.01057 8.19163 4.82001 8.16441 4.51668C8.15663 4.41168 8.15274 4.31835 8.10997 4.22113C8.01663 3.92557 7.76774 3.61446 7.40997 3.49779C7.63941 3.75446 7.73274 4.05002 7.73274 4.26779C7.73274 4.2989 7.73274 4.3339 7.72497 4.36501C7.69774 4.5439 7.66663 4.72668 7.68608 5.06501C7.70552 5.24779 7.73274 5.46557 7.83774 5.76501C7.76385 5.7339 7.70552 5.67168 7.65497 5.60168C7.46441 5.35668 7.3983 5.1739 7.32441 4.87835C7.29719 4.77335 7.27774 4.68779 7.22719 4.58668C7.08719 4.31835 6.79163 4.04613 6.42219 3.98002C6.68663 4.20557 6.82274 4.48557 6.86163 4.69946C6.86941 4.73057 6.86941 4.76557 6.86941 4.79668C6.87719 4.97557 6.86941 5.15835 6.9433 5.49668C6.98997 5.67557 7.0483 5.88557 7.19997 6.1539C7.12608 6.13446 7.05997 6.08779 6.99774 6.02168C6.7683 5.81168 6.66719 5.64057 6.5583 5.35668C6.51941 5.25946 6.48052 5.1739 6.4183 5.08835C6.23552 4.84335 5.90497 4.62557 5.52385 4.62168C5.82719 4.80057 6.00608 5.04946 6.07608 5.25557C6.08385 5.28668 6.08774 5.32168 6.09552 5.35279C6.12663 5.53168 6.14997 5.71446 6.27441 6.02946C6.3483 6.20057 6.44552 6.3989 6.63608 6.64001C6.5583 6.63223 6.48441 6.59334 6.41052 6.54279C6.15385 6.37168 6.02941 6.21223 5.86219 5.95557C5.80774 5.86223 5.76497 5.78446 5.6833 5.71057C5.46163 5.48112 5.09997 5.31779 4.72663 5.37223C5.04941 5.50446 5.26719 5.72612 5.37219 5.91668C5.38385 5.9439 5.39941 5.97501 5.41108 6.01001C5.46941 6.17334 5.51608 6.35223 5.68719 6.64779C5.78441 6.80723 5.91274 6.98223 6.14219 7.20001C6.06441 7.20001 5.98274 7.17279 5.90497 7.1339C5.62108 7.00168 5.47719 6.86945 5.27885 6.64001C5.20497 6.56223 5.14663 6.48834 5.06108 6.42223C4.81219 6.24334 4.42719 6.13834 4.06552 6.25112C4.40774 6.3289 4.65663 6.51557 4.78497 6.68668C4.81219 6.7139 4.82385 6.74112 4.83941 6.77223C4.92497 6.93168 5.00274 7.10279 5.22052 7.35945C5.33719 7.50334 5.48885 7.66279 5.74552 7.84167C5.67163 7.85334 5.59385 7.84167 5.50052 7.81056C5.20497 7.73279 5.03774 7.62001 4.8083 7.42167C4.73052 7.35556 4.65663 7.29723 4.5633 7.24279C4.28719 7.10279 3.89052 7.0639 3.5483 7.23112C3.8983 7.25056 4.17441 7.40223 4.33385 7.54612C4.3533 7.57334 4.37274 7.59279 4.39219 7.6239C4.50497 7.7639 4.60219 7.91945 4.85885 8.14501C4.99885 8.26167 5.17385 8.3939 5.45774 8.53389C5.38385 8.56112 5.2983 8.56112 5.21274 8.54167C4.90163 8.51056 4.72663 8.42501 4.46219 8.26556C4.36885 8.21112 4.29108 8.16056 4.19385 8.13334C3.8983 8.03612 3.50941 8.05556 3.1983 8.27334C3.54052 8.24223 3.83608 8.34723 4.01497 8.46389C4.04219 8.48334 4.06941 8.50278 4.08885 8.53001C4.22108 8.65445 4.34552 8.79445 4.62941 8.96945C4.78885 9.06667 4.9833 9.17167 5.28274 9.26112C5.21663 9.3 5.13885 9.31556 5.04552 9.31556C4.73441 9.32334 4.54385 9.26889 4.25997 9.15612C4.16274 9.11723 4.07719 9.07834 3.9683 9.06278C3.66497 9.01612 3.27608 9.09389 3.00774 9.35834C3.34219 9.27278 3.6533 9.32723 3.84385 9.41667C3.87497 9.43611 3.90219 9.44778 3.92941 9.47111C4.0733 9.57611 4.22108 9.68889 4.53608 9.825C4.70719 9.89111 4.9133 9.965 5.22052 10.0039C5.16219 10.0583 5.08052 10.0817 4.99497 10.0894C4.68385 10.1556 4.4933 10.1283 4.18997 10.0622C4.09274 10.035 3.99941 10.0156 3.89441 10.0156C3.5833 10.0156 3.21774 10.1556 2.99219 10.455C3.30719 10.315 3.6183 10.3228 3.8283 10.3811C3.85941 10.3928 3.88663 10.4083 3.92163 10.42C4.08108 10.4978 4.24441 10.5911 4.57497 10.6767C4.75385 10.7156 4.97163 10.7544 5.27885 10.7506C5.22441 10.805 5.15441 10.8439 5.06885 10.8672C4.77719 10.9722 4.58274 10.9839 4.27941 10.9606C4.17441 10.9528 4.08108 10.9489 3.97608 10.9606C3.67274 11.015 3.33052 11.2094 3.15163 11.5478C3.4433 11.3572 3.75052 11.3183 3.9683 11.3456C3.99941 11.3533 4.02663 11.3572 4.06163 11.365C4.23274 11.4233 4.40385 11.4817 4.74608 11.5167C4.92885 11.5283 5.14663 11.5361 5.45774 11.4778C5.41108 11.5439 5.34497 11.5906 5.26719 11.6294C4.99885 11.7811 4.80052 11.82 4.49719 11.8472C4.39219 11.8589 4.29885 11.8667 4.20163 11.9017C3.90608 11.995 3.60274 12.2439 3.4783 12.6017C3.74274 12.3722 4.0383 12.2867 4.25608 12.2789C4.28719 12.2789 4.32219 12.2789 4.3533 12.2867C4.52441 12.3139 4.70719 12.345 5.0533 12.3256C5.23608 12.3139 5.45385 12.2789 5.74552 12.1739C5.7183 12.2478 5.65997 12.3061 5.58219 12.3567C5.33719 12.5472 5.15441 12.6133 4.85885 12.6872C4.76163 12.7144 4.6683 12.7339 4.57497 12.7844C4.29885 12.9244 4.03441 13.22 3.9683 13.5894C4.18608 13.325 4.46997 13.1889 4.67997 13.15C4.71108 13.1422 4.74608 13.1422 4.77719 13.1422C4.95608 13.1344 5.14663 13.1422 5.47719 13.0683C5.65608 13.0217 5.86608 12.9633 6.14219 12.8117C6.12274 12.8856 6.0683 12.9556 6.00219 13.0139C5.79219 13.2433 5.62108 13.3444 5.33719 13.4533C5.24385 13.5 5.1583 13.5311 5.07274 13.5933C4.82385 13.7761 4.60608 14.1067 4.5983 14.4878C4.77719 14.1844 5.03385 14.0056 5.23608 13.9356C5.26719 13.9278 5.29441 13.9239 5.32941 13.9161C5.5083 13.885 5.69108 13.8617 6.00608 13.7372C6.17719 13.6633 6.37552 13.5661 6.62441 13.3833C6.61274 13.4572 6.57774 13.5272 6.51941 13.6011C6.3483 13.8578 6.19663 13.9822 5.93219 14.1494C5.84663 14.2039 5.76885 14.2467 5.68719 14.3283C5.46941 14.5461 5.30997 14.9078 5.36441 15.285C5.48885 14.9622 5.71441 14.7444 5.90497 14.6394C5.93608 14.6278 5.9633 14.6122 5.9983 14.6005C6.16941 14.5461 6.3483 14.4955 6.63608 14.3244C6.79552 14.2272 6.97052 14.0989 7.1883 13.8694C7.19608 13.9472 7.16885 14.0289 7.12219 14.1067C6.98997 14.3905 6.85774 14.5344 6.6283 14.7328C6.55052 14.8067 6.47663 14.865 6.4183 14.9505C6.23941 15.1994 6.13441 15.5844 6.24719 15.9461C6.32108 15.6039 6.50385 15.355 6.68274 15.2267C6.70997 15.2072 6.73719 15.1878 6.76052 15.1722C6.91997 15.0867 7.09108 15.0089 7.35163 14.7911C7.49163 14.6744 7.64719 14.5228 7.82608 14.2661C7.83774 14.34 7.82608 14.4255 7.79885 14.5111C7.7133 14.8067 7.6083 14.9739 7.40219 15.2033C7.33608 15.2811 7.27774 15.355 7.23108 15.4522C7.09108 15.7283 7.0483 16.1172 7.21163 16.4594C7.23885 16.1094 7.38274 15.8333 7.53441 15.6817C7.55385 15.6544 7.58108 15.635 7.6083 15.6155C7.75219 15.5028 7.90385 15.4055 8.12941 15.1489C8.24608 15.0089 8.3783 14.8339 8.5183 14.55C8.54552 14.6239 8.54552 14.7094 8.52997 14.795C8.49108 15.1061 8.4133 15.2811 8.25385 15.5455C8.19552 15.6389 8.14885 15.7167 8.11385 15.8139C8.02052 16.1094 8.03997 16.5061 8.25774 16.8133C8.22663 16.4633 8.32385 16.1678 8.4483 15.9889C8.46774 15.9617 8.48719 15.9344 8.50663 15.915C8.63108 15.7828 8.77108 15.6583 8.95385 15.3744C9.04719 15.215 9.15219 15.0205 9.23774 14.7211C9.27663 14.7872 9.29219 14.865 9.29219 14.9583C9.30385 15.2694 9.2533 15.46 9.13274 15.7439C9.09385 15.8411 9.05885 15.9267 9.03941 16.0355C8.99274 16.3389 9.07052 16.7278 9.33497 16.9961C9.24941 16.6617 9.30385 16.3505 9.40108 16.16C9.41274 16.1289 9.4283 16.1017 9.44774 16.0744C9.55274 15.9305 9.6733 15.7828 9.80163 15.4678C9.87552 15.2967 9.94552 15.0905 9.98441 14.7833C10.0311 14.8417 10.0583 14.9233 10.07 15.0089C10.1283 15.32 10.1089 15.5105 10.0389 15.8139C10.0116 15.9111 9.99219 16.0044 9.99219 16.1094C9.99219 16.4205 10.1361 16.7861 10.4394 17.0117C10.2994 16.6967 10.2994 16.3855 10.3655 16.1755C10.3733 16.1444 10.385 16.1172 10.3966 16.0822C10.4744 15.9228 10.5677 15.7594 10.6533 15.4289C10.6922 15.25 10.7311 15.0322 10.7272 14.725C10.7855 14.7794 10.8205 14.8494 10.8439 14.935C10.9566 15.2267 10.9605 15.4211 10.9411 15.7322C10.9294 15.8294 10.9216 15.9228 10.9411 16.0278C10.9877 16.3389 11.1861 16.6811 11.5205 16.8561C11.3377 16.5605 11.2911 16.2494 11.3222 16.0394C11.3222 16.0083 11.33 15.9733 11.3416 15.9422C11.3961 15.7711 11.4583 15.6 11.4933 15.2578C11.5011 15.075 11.505 14.8572 11.4544 14.5461C11.5127 14.5928 11.5672 14.6589 11.6061 14.7367C11.7577 15.005 11.7966 15.2033 11.8239 15.5067C11.8316 15.6117 11.8355 15.705 11.8705 15.8022C11.9677 16.0978 12.2127 16.4011 12.5744 16.5255C12.345 16.2611 12.2516 15.9655 12.2439 15.7478C12.2439 15.7167 12.2439 15.6817 12.2516 15.6505C12.2789 15.4794 12.3177 15.2967 12.2905 14.9505C12.2789 14.7678 12.2439 14.55 12.1466 14.2583C12.2127 14.2894 12.2711 14.3439 12.3255 14.4217C12.5161 14.6667 12.59 14.8494 12.66 15.145C12.6794 15.2422 12.7066 15.3355 12.7533 15.4289C12.8972 15.705 13.1889 15.9694 13.5622 16.0355C13.2939 15.8178 13.1539 15.5339 13.115 15.3239C13.1072 15.2928 13.1072 15.2578 13.1072 15.2267C13.1072 15.0478 13.115 14.865 13.0411 14.5267C12.9944 14.3478 12.9283 14.1378 12.7766 13.8617C12.8544 13.8811 12.9205 13.9355 12.9789 14.0017C13.2083 14.2117 13.3094 14.3828 13.4261 14.6667C13.465 14.76 13.5 14.8455 13.5661 14.9311C13.7489 15.18 14.0794 15.3978 14.4566 15.4055C14.1611 15.2267 13.9822 14.97 13.9083 14.7678C13.8966 14.7367 13.8889 14.7094 13.8811 14.6744C13.8539 14.4955 13.8266 14.3128 13.7022 13.9978C13.6283 13.8267 13.5389 13.6283 13.3483 13.3872C13.4261 13.395 13.5 13.4261 13.5739 13.4844C13.8305 13.6556 13.955 13.8072 14.1144 14.0717C14.1689 14.1572 14.2194 14.2428 14.2933 14.3167C14.5111 14.5344 14.8727 14.6939 15.25 14.6394C14.9272 14.515 14.7094 14.2894 14.6122 14.0989C14.5927 14.0678 14.5811 14.0406 14.5733 14.0055C14.515 13.8344 14.4605 13.6556 14.2894 13.3678C14.1922 13.2083 14.0639 13.0333 13.8422 12.8156C13.9161 12.8156 13.9939 12.835 14.0794 12.8817C14.3555 13.0139 14.5072 13.1461 14.7055 13.3756C14.7716 13.4533 14.83 13.5272 14.9155 13.5856C15.1644 13.7683 15.5494 13.8694 15.9111 13.7644C15.5766 13.6867 15.3239 13.5 15.1916 13.325C15.1722 13.2978 15.1527 13.2706 15.1372 13.2472C15.0516 13.0878 14.9777 12.9167 14.76 12.6561C14.6355 12.5161 14.4839 12.3606 14.2272 12.1817C14.305 12.17 14.3866 12.1817 14.4722 12.2089C14.7677 12.2944 14.935 12.4072 15.1722 12.6056C15.25 12.6717 15.3239 12.73 15.4172 12.7767C15.6933 12.9167 16.0822 12.9594 16.4244 12.7961C16.0744 12.7689 15.8061 12.625 15.6466 12.4733C15.6194 12.4539 15.6 12.4267 15.5805 12.3994C15.4755 12.2556 15.3705 12.1039 15.1177 11.8783C14.9739 11.7617 14.795 11.6294 14.5189 11.4894C14.5927 11.4622 14.6705 11.4622 14.7639 11.4778C15.0672 11.5167 15.25 11.5944 15.5066 11.7617C15.6 11.8161 15.6777 11.8589 15.775 11.8939C16.0705 11.9872 16.4672 11.9678 16.7744 11.75C16.4244 11.7811 16.1366 11.6839 15.9577 11.5594C15.9305 11.54 15.9033 11.5206 15.88 11.5011C15.7555 11.3767 15.6311 11.2367 15.3394 11.0539C15.18 10.9606 14.9894 10.8556 14.6861 10.77C14.7522 10.7311 14.8377 10.7156 14.9233 10.7156C15.2383 10.7039 15.4289 10.7544 15.7089 10.875C15.8061 10.9139 15.8916 10.9489 16.0005 10.9683C16.3039 11.015 16.6927 10.9372 16.9611 10.6728C16.6266 10.7583 16.3233 10.7039 16.125 10.6067C16.0977 10.595 16.0666 10.5794 16.0394 10.56C15.8955 10.455 15.7477 10.3422 15.4405 10.2061C15.2694 10.14 15.0594 10.0661 14.7483 10.0233C14.8066 9.97667 14.8883 9.94945 14.9777 9.93778C15.2811 9.87945 15.4794 9.89889 15.775 9.96889C15.8722 9.99611 15.9655 10.0156 16.0705 10.0156C16.3816 10.0156 16.7472 9.87167 16.9805 9.57611C16.6577 9.70834 16.3466 9.70834 16.1444 9.64223C16.1133 9.63445 16.0783 9.62278 16.0511 9.61111C15.8877 9.53334 15.7283 9.44 15.3977 9.35445C15.215 9.31556 15.0011 9.27667 14.6861 9.28056C14.7405 9.22223 14.8105 9.18723 14.8961 9.16389C15.1916 9.05112 15.39 9.04723 15.6933 9.06667C15.7983 9.07834 15.8916 9.08612 15.9966 9.06667C16.3 9.02 16.6422 8.82167 16.8211 8.48723C16.5255 8.67001 16.2222 8.71667 16.0044 8.68945C15.9733 8.68167 15.9383 8.67778 15.9072 8.66223C15.7361 8.60778 15.565 8.54556 15.2305 8.51056C15.0477 8.50278 14.8222 8.49889 14.5189 8.55723C14.5577 8.49112 14.6239 8.44056 14.7094 8.39778C14.9777 8.24612 15.1722 8.20723 15.4716 8.18001C15.5766 8.17223 15.67 8.16834 15.7672 8.13334C16.0627 8.03612 16.3739 7.79112 16.4905 7.42945C16.2339 7.6589 15.9383 7.75223 15.7205 7.76001C15.6894 7.76001 15.6544 7.76001 15.6233 7.75223C15.4444 7.72501 15.2616 7.68612 14.9233 7.71334C14.7405 7.72501 14.5227 7.76001 14.2233 7.86501C14.2544 7.79112 14.3166 7.73279 14.3866 7.68223C14.6316 7.49167 14.8144 7.41779 15.11 7.34779C15.215 7.32834 15.3005 7.30112 15.4016 7.25445C15.67 7.11056 15.9422 6.8189 16.0083 6.44557C15.7827 6.7139 15.5066 6.8539 15.2889 6.89279C15.2577 6.90056 15.2227 6.90056 15.1916 6.90056C15.0127 6.90056 14.83 6.89279 14.4994 6.96668C14.3166 7.01334 14.1027 7.07945 13.8344 7.23112C13.8539 7.15334 13.9005 7.08723 13.9666 7.0289C14.1766 6.79945 14.3477 6.69834 14.6316 6.58168C14.7289 6.54279 14.8144 6.50779 14.9 6.44168C15.145 6.2589 15.3627 5.92834 15.3666 5.55112C15.1877 5.84668 14.9389 6.02557 14.7327 6.09946C14.7016 6.11112 14.6666 6.1189 14.6355 6.12668C14.4566 6.15779 14.2739 6.18112 13.9589 6.30557C13.7955 6.37945 13.5972 6.4689 13.3483 6.65945C13.3561 6.58557 13.395 6.50779 13.4455 6.4339C13.6166 6.17723 13.7761 6.05279 14.0327 5.89334C14.1261 5.8389 14.2039 5.78835 14.2777 5.71446C14.4955 5.49668 14.6589 5.13501 14.6083 4.75779C14.4761 5.08057 14.2544 5.29835 14.06 5.40335C14.0327 5.41501 14.0016 5.43057 13.9744 5.43446C13.8033 5.49279 13.6244 5.54723 13.3289 5.71835C13.1694 5.81557 12.9944 5.9439 12.7766 6.16557C12.7766 6.09168 12.8039 6.0139 12.8427 5.93612C12.975 5.65223 13.1072 5.50835 13.3366 5.30223C13.4144 5.23612 13.4883 5.17779 13.5544 5.09224C13.7333 4.84335 13.8383 4.45835 13.7255 4.09668C13.6477 4.43113 13.4611 4.6839 13.29 4.81612C13.2627 4.83557 13.2355 4.85501 13.2044 4.87057C13.045 4.95612 12.8739 5.03001 12.6172 5.24779C12.4733 5.37223 12.3139 5.5239 12.1427 5.78057C12.1233 5.70668 12.135 5.62112 12.17 5.53557C12.2555 5.24001 12.3605 5.07279 12.5589 4.83557C12.625 4.75779 12.6911 4.69168 12.7377 4.59057C12.8777 4.31446 12.9166 3.92557 12.7494 3.58335C12.73 3.93335 12.5861 4.20168 12.4344 4.36113C12.4072 4.38835 12.3877 4.40779 12.3605 4.42724C12.24 4.5089 12.0805 4.6139 11.8589 4.87057Z" fill="#FFFF00"/>
</g>
<defs>
<clipPath id="clip0">
<rect width="14" height="14" fill="white" transform="translate(3 3)"/>
</clipPath>
</defs>
</svg>
