<svg width="61" height="61" viewBox="0 0 61 61" fill="none" xmlns="http://www.w3.org/2000/svg">
<circle cx="30.4381" cy="30.5001" r="28.0631" stroke="#3B2C72" stroke-width="3"/>
<path d="M30.7007 22.6253C26.8355 22.6253 23.6328 25.7727 23.6328 29.6932C23.6328 33.6137 26.7802 36.7612 30.7007 36.7612C34.6212 36.7612 37.7687 33.5585 37.7687 29.6932C37.7687 25.828 34.566 22.6253 30.7007 22.6253ZM30.7007 34.2211C28.2159 34.2211 26.1728 32.178 26.1728 29.6932C26.1728 27.2084 28.2159 25.1653 30.7007 25.1653C33.1856 25.1653 35.2286 27.2084 35.2286 29.6932C35.2286 32.178 33.1856 34.2211 30.7007 34.2211Z" fill="#3B2C72"/>
<path d="M38.0466 24.0609C38.931 24.0609 39.648 23.344 39.648 22.4596C39.648 21.5752 38.931 20.8583 38.0466 20.8583C37.1623 20.8583 36.4453 21.5752 36.4453 22.4596C36.4453 23.344 37.1623 24.0609 38.0466 24.0609Z" fill="#3B2C72"/>
<path d="M42.1873 18.3183C40.7516 16.8274 38.7086 16.0543 36.3894 16.0543L25.0144 16.0543C20.2105 16.0543 17.0078 19.257 17.0078 24.061L17.0078 35.3807C17.0078 37.7551 17.7809 39.7981 19.327 41.289C20.8179 42.7247 22.8057 43.4425 25.0697 43.4425L36.3342 43.4425C38.7086 43.4425 40.6964 42.6695 42.1321 41.289C43.623 39.8534 44.396 37.8103 44.396 35.4359L44.396 24.061C44.396 21.7418 43.623 19.7539 42.1873 18.3183ZM41.9664 35.4359C41.9664 37.1477 41.359 38.5281 40.3651 39.4668C39.3712 40.4055 37.9907 40.9025 36.3342 40.9025L25.0697 40.9025C23.4131 40.9025 22.0327 40.4055 21.0387 39.4668C20.0448 38.4729 19.5478 37.0924 19.5478 35.3807L19.5478 24.061C19.5478 22.4044 20.0448 21.024 21.0387 20.03C21.9774 19.0913 23.4131 18.5944 25.0697 18.5944L36.4446 18.5944C38.1012 18.5944 39.4816 19.0913 40.4755 20.0852C41.4142 21.0792 41.9664 22.4596 41.9664 24.061L41.9664 35.4359Z" fill="#3B2C72"/>
</svg>
