<svg width="45" height="45" viewBox="0 0 45 45" fill="none" xmlns="http://www.w3.org/2000/svg">
<path d="M0.0232297 22.1141C0.0104043 9.90458 9.90459 0 22.1141 0H22.8859C35.0773 0 44.964 9.8763 44.9768 22.0677V22.0677C44.9896 34.2772 35.0954 44.1818 22.8859 44.1818H22.1141C9.92271 44.1818 0.0360362 34.3055 0.0232297 22.1141V22.1141Z" fill="white"/>
<path d="M28.2211 13.0856C33.4695 15.932 35.4167 22.4942 32.5703 27.7426C29.7239 32.991 23.1618 34.9381 17.9134 32.0917C12.665 29.2453 10.7178 22.6832 13.5642 17.4348C15.3148 14.2069 18.4709 12.2278 21.8624 11.8444M21.8624 11.8444L15.41 9.93179M21.8624 11.8444L18.9095 18.4318" stroke="#3B2C72" stroke-width="2" stroke-linecap="round" stroke-linejoin="round"/>
</svg>
