<svg width="108" height="29" viewBox="0 0 108 29" fill="none" xmlns="http://www.w3.org/2000/svg">
<rect x="8.5" y="0.5" width="99" height="28" rx="14" stroke="white"/>
<rect x="5" y="4" width="13" height="20" fill="#3B2C72"/>
<g clip-path="url(#clip0)">
<path d="M5.66563 3C7.19485 4.77606 7.73007 6.01158 6.889 8.71429C6.04793 11.417 4.32756 13.0772 4.28933 16.5907C4.23581 21.3012 9.71806 23 9.71806 23C9.71806 23 7.386 20.7992 7.23308 18.0965C7.08015 15.3938 8.45645 14.0811 9.75629 9.29344C10.7503 5.04633 6.77431 3.34749 5.66563 3Z" fill="white"/>
<path d="M4.28942 10.1815C4.86287 7.05405 1.84267 6.16602 1.84267 6.16602C2.53082 7.01544 2.91312 7.40154 2.68374 9.1776C2.45436 10.9537 0.657525 12.2278 0.160529 14.3513C-0.841109 18.6371 3.21897 19.834 3.21897 19.834C2.41613 18.5598 1.95736 18.3359 1.95736 16.4749C1.95736 14.1583 3.65479 13.6409 4.28942 10.1815Z" fill="white"/>
<path d="M11.4156 6.71423C12.119 7.54821 12.509 7.92659 12.3178 9.71037C12.1267 11.4942 10.3528 12.7992 9.90167 14.9304C8.98414 19.2316 13.0672 20.3513 13.0672 20.3513C12.2414 19.0926 11.775 18.8764 11.7367 17.0154C11.6909 14.6988 13.3806 14.1428 13.9465 10.6756C14.4511 7.54049 11.4156 6.71423 11.4156 6.71423Z" fill="white"/>
</g>
<defs>
<clipPath id="clip0">
<rect width="14" height="20" fill="white" transform="translate(0 3)"/>
</clipPath>
</defs>
</svg>
