<svg width="58" height="58" viewBox="0 0 58 58" fill="none" xmlns="http://www.w3.org/2000/svg">
<path d="M29.0076 57.9839C45.0194 57.9839 57.9996 45.0038 57.9996 28.992C57.9996 12.9801 45.0194 0 29.0076 0C12.9958 0 0.015625 12.9801 0.015625 28.992C0.015625 45.0038 12.9958 57.9839 29.0076 57.9839Z" fill="#4D76A1"/>
<path fill-rule="evenodd" clip-rule="evenodd" d="M27.9236 41.7052H30.1975C30.1975 41.7052 30.8693 41.6535 31.231 41.2401C31.5411 40.8783 31.5411 40.2582 31.5411 40.2582C31.5411 40.2582 31.4894 37.2091 32.9364 36.744C34.3318 36.2789 36.1406 39.6897 38.0527 40.9817C39.4997 41.9636 40.585 41.7569 40.585 41.7569L45.6495 41.7052C45.6495 41.7052 48.2851 41.5501 47.0448 39.4313C46.9415 39.2763 46.3213 37.8809 43.2723 35.0386C40.0682 32.0929 40.5333 32.558 44.3575 27.4417C46.6831 24.341 47.6133 22.4289 47.3549 21.602C47.0965 20.8268 45.3394 21.0335 45.3394 21.0335L39.6031 21.0852C39.6031 21.0852 39.1896 21.0335 38.8795 21.2403C38.5695 21.447 38.3628 21.8604 38.3628 21.8604C38.3628 21.8604 37.4325 24.2893 36.1922 26.3048C33.66 30.6459 32.6264 30.8526 32.2129 30.5942C31.231 29.974 31.4894 28.0619 31.4894 26.7182C31.4894 22.5322 32.1096 20.7751 30.2491 20.31C29.629 20.155 29.1639 20.0516 27.5618 20.0516C25.4947 20.0516 23.7892 20.0516 22.8073 20.5167C22.1355 20.8268 21.6704 21.5503 21.9805 21.602C22.3422 21.6537 23.2208 21.8087 23.6859 22.4289C24.2544 23.2041 24.2544 25.0128 24.2544 25.0128C24.2544 25.0128 24.6161 29.974 23.4792 30.5425C22.704 30.9559 21.6704 30.1291 19.3965 26.2014C18.2079 24.186 17.3294 21.9638 17.3294 21.9638C17.3294 21.9638 17.1743 21.5503 16.8642 21.3436C16.5025 21.0852 15.9857 20.9819 15.9857 20.9819L10.5594 21.0335C10.5594 21.0335 9.73253 21.0335 9.42246 21.3953C9.16406 21.7054 9.42246 22.3772 9.42246 22.3772C9.42246 22.3772 13.6601 32.3513 18.518 37.3641C22.9107 42.0153 27.9236 41.7052 27.9236 41.7052Z" fill="white"/>
</svg>
