<svg width="60" height="61" viewBox="0 0 60 61" fill="none" xmlns="http://www.w3.org/2000/svg">
<circle cx="29.5631" cy="30.5001" r="28.0631" stroke="#3B2C72" stroke-width="3"/>
<path d="M43.5757 22.221L38.2821 22.221C38.066 22.221 37.854 22.2855 37.6686 22.4077C37.4832 22.5299 37.3313 22.7052 37.2291 22.9149C37.2291 22.9149 35.1178 27.1978 34.4397 28.6404C32.6152 32.5211 31.4338 31.3028 31.4338 29.5017L31.4338 23.2916C31.4338 22.7727 31.2466 22.275 30.9135 21.9081C30.5804 21.5411 30.1286 21.335 29.6574 21.335L25.6774 21.335C25.1353 21.2906 24.592 21.3996 24.099 21.6516C23.606 21.9036 23.1796 22.2902 22.8604 22.7748C22.8604 22.7748 24.8814 22.4148 24.8814 25.4144C24.8814 26.1582 24.9162 28.298 24.9479 30.0926C24.9539 30.3571 24.886 30.6172 24.7536 30.8379C24.6211 31.0585 24.4303 31.2291 24.207 31.3265C23.9837 31.424 23.7387 31.4436 23.5049 31.3827C23.2712 31.3219 23.06 31.1835 22.9 30.9863C21.2708 28.4905 19.9214 25.7871 18.8809 22.9348C18.7916 22.7214 18.6485 22.5408 18.4688 22.4143C18.289 22.2877 18.0801 22.2207 17.8668 22.221C16.7188 22.221 14.4215 22.221 13.0572 22.221C12.9249 22.22 12.7944 22.2544 12.6768 22.3213C12.5592 22.3881 12.4582 22.4854 12.3823 22.6047C12.3064 22.7241 12.2579 22.862 12.241 23.0065C12.2242 23.151 12.2394 23.2979 12.2855 23.4345C13.7459 27.8471 20.0369 41.7137 27.2175 41.7137L30.2398 41.7137C30.5565 41.7137 30.8602 41.5751 31.0841 41.3284C31.308 41.0818 31.4338 40.7473 31.4338 40.3985L31.4338 38.3883C31.4338 38.1361 31.5008 37.8894 31.6265 37.6786C31.7522 37.4679 31.9311 37.3022 32.1412 37.2021C32.3514 37.102 32.5835 37.0718 32.809 37.1152C33.0345 37.1586 33.2436 37.2737 33.4104 37.4464L37.0279 41.1902C37.3528 41.5265 37.7818 41.7136 38.2276 41.7137L42.978 41.7137C45.2691 41.7137 45.2691 39.9624 44.0199 38.6074C43.1408 37.6537 39.9686 33.9705 39.9686 33.9705C39.6969 33.6605 39.5349 33.2537 39.5117 32.8236C39.4886 32.3935 39.6059 31.9685 39.8425 31.6253C40.8679 30.139 42.545 27.706 43.2563 26.6637C44.2285 25.2391 45.9881 22.221 43.5757 22.221Z" fill="#3B2C72"/>
</svg>
